<svg width="114" height="183" viewBox="0 0 114 183" fill="none" xmlns="http://www.w3.org/2000/svg">
<path d="M17.1298 157.516L15.4119 158.54L15.4177 158.55L15.4236 158.56L17.1298 157.516ZM17.1298 26.188L15.4236 25.1444L15.4199 25.1505L15.4162 25.1566L17.1298 26.188ZM86.8978 13.648L85.5552 15.1304L85.5698 15.1436L85.5847 15.1566L86.8978 13.648ZM105.594 44.428L103.688 45.0344L103.69 45.0407L105.594 44.428ZM105.594 139.504L107.498 140.117L107.5 140.11L105.594 139.504ZM86.8978 170.284L88.2247 171.78L88.2265 171.779L86.8978 170.284ZM74.8138 148.852L76.3673 150.112L76.3755 150.101L76.3835 150.091L74.8138 148.852ZM85.0738 125.368L87.0225 125.818L87.0225 125.818L85.0738 125.368ZM85.0738 58.336L87.0225 57.8863L87.0225 57.8863L85.0738 58.336ZM40.1578 34.852L41.7113 36.1116L41.7195 36.1015L41.7275 36.0913L40.1578 34.852ZM40.1578 148.852L38.6042 150.112L38.6144 150.124L38.6247 150.136L40.1578 148.852ZM57.4858 179C40.9027 179 28.0745 171.577 18.8359 156.472L15.4236 158.56C25.337 174.767 39.4128 183 57.4858 183V179ZM18.8476 156.492C9.68034 141.114 4.99375 119.632 4.99375 91.852H0.99375C0.99375 120.008 5.73116 142.302 15.4119 158.54L18.8476 156.492ZM4.99375 91.852C4.99375 63.9153 9.6818 42.4393 18.8433 27.2194L15.4162 25.1566C5.7297 41.2487 0.99375 63.5487 0.99375 91.852H4.99375ZM18.8359 27.2316C28.0745 12.1271 40.9027 4.70399 57.4858 4.70399V0.703985C39.4128 0.703985 25.337 8.93686 15.4236 25.1444L18.8359 27.2316ZM57.4858 4.70399C68.5756 4.70399 77.8915 8.1897 85.5552 15.1304L88.2403 12.1656C79.792 4.51427 69.4999 0.703985 57.4858 0.703985V4.70399ZM85.5847 15.1566C93.4467 21.9995 99.5114 31.9083 103.688 45.0344L107.5 43.8216C103.164 30.1957 96.7648 19.5845 88.2108 12.1394L85.5847 15.1566ZM103.69 45.0407C107.865 58.0144 109.978 73.6048 109.978 91.852H113.978C113.978 73.3151 111.834 57.2896 107.498 43.8153L103.69 45.0407ZM109.978 91.852C109.978 110.098 107.866 125.768 103.688 138.898L107.5 140.11C111.834 126.488 113.978 110.39 113.978 91.852H109.978ZM103.69 138.891C99.5148 151.864 93.4479 161.786 85.569 168.789L88.2265 171.779C96.7636 164.19 103.161 153.592 107.498 140.117L103.69 138.891ZM85.5708 168.788C77.9086 175.582 68.5875 179 57.4858 179V183C69.4881 183 79.7749 179.274 88.2247 171.78L85.5708 168.788ZM57.4858 159.288C65.1051 159.288 71.4431 156.185 76.3673 150.112L73.2602 147.592C69.0644 152.767 63.8504 155.288 57.4858 155.288V159.288ZM76.3835 150.091C81.1822 144.013 84.6997 135.883 87.0225 125.818L83.125 124.918C80.8878 134.613 77.5653 142.139 73.244 147.613L76.3835 150.091ZM87.0225 125.818C89.3433 115.761 90.4938 104.434 90.4938 91.852H86.4938C86.4938 104.198 85.3642 115.215 83.125 124.918L87.0225 125.818ZM90.4938 91.852C90.4938 79.2697 89.3433 67.9428 87.0225 57.8863L83.125 58.7857C85.3642 68.4892 86.4938 79.5063 86.4938 91.852H90.4938ZM87.0225 57.8863C84.6997 47.8207 81.1822 39.691 76.3835 33.6127L73.244 36.0913C77.5653 41.565 80.8878 49.0912 83.125 58.7857L87.0225 57.8863ZM76.3835 33.6127C71.4673 27.3855 65.1261 24.188 57.4858 24.188V28.188C63.8294 28.188 69.0402 30.7665 73.244 36.0913L76.3835 33.6127ZM57.4858 24.188C49.8454 24.188 43.5042 27.3855 38.588 33.6127L41.7275 36.0913C45.9313 30.7665 51.1421 28.188 57.4858 28.188V24.188ZM38.6042 33.5924C33.7917 39.5279 30.2717 47.5931 27.949 57.6583L31.8465 58.5577C34.0838 48.8629 37.4038 41.4241 41.7113 36.1116L38.6042 33.5924ZM27.949 57.6583C25.6279 67.7164 24.4778 79.1197 24.4778 91.852H28.4778C28.4778 79.3523 29.6076 68.2596 31.8465 58.5577L27.949 57.6583ZM24.4778 91.852C24.4778 104.584 25.6279 115.988 27.949 126.046L31.8465 125.146C29.6076 115.444 28.4778 104.352 28.4778 91.852H24.4778ZM27.949 126.046C30.2717 136.111 33.7917 144.176 38.6042 150.112L41.7113 147.592C37.4038 142.28 34.0838 134.841 31.8465 125.146L27.949 126.046ZM38.6247 150.136C43.6853 156.176 50.0067 159.288 57.4858 159.288V155.288C51.2848 155.288 46.0543 152.776 41.6908 147.568L38.6247 150.136Z" fill="#676767"/>
</svg>
