<svg width="64" height="183" viewBox="0 0 64 183" fill="none" xmlns="http://www.w3.org/2000/svg">
<path d="M38.2941 30.292H40.2941V27.2698L37.5124 28.4511L38.2941 30.292ZM21.6501 37.36L22.4116 39.2093L22.4217 39.2052L22.4318 39.2009L21.6501 37.36ZM5.91809 35.764L4.50388 37.1782L4.52826 37.2026L4.55346 37.2261L5.91809 35.764ZM10.2501 16.612L10.9157 18.498L10.9258 18.4944L10.2501 16.612ZM45.8181 3.844L46.4938 5.72639L46.5276 5.71427L46.5609 5.70095L45.8181 3.844ZM58.3581 6.35199L56.8467 7.66186L56.8934 7.71576L56.9439 7.76621L58.3581 6.35199ZM58.1301 177.58L59.5443 178.994L59.5443 178.994L58.1301 177.58ZM49.6941 179C47.2192 179 45.0585 178.096 43.1283 176.166L40.2999 178.994C42.9297 181.624 46.089 183 49.6941 183V179ZM43.1283 176.166C41.2191 174.257 40.2941 172.028 40.2941 169.372H36.2941C36.2941 173.1 37.6491 176.343 40.2999 178.994L43.1283 176.166ZM40.2941 169.372V30.292H36.2941V169.372H40.2941ZM37.5124 28.4511L20.8683 35.5191L22.4318 39.2009L39.0758 32.1329L37.5124 28.4511ZM20.8886 35.5106C18.4932 36.497 16.3211 36.956 14.3541 36.956V40.956C16.9471 40.956 19.639 40.351 22.4116 39.2093L20.8886 35.5106ZM14.3541 36.956C11.4766 36.956 9.16411 36.0578 7.28273 34.3019L4.55346 37.2261C7.23208 39.7262 10.5436 40.956 14.3541 40.956V36.956ZM7.33231 34.3498C5.62271 32.6402 4.72609 30.4342 4.72609 27.556H0.726094C0.726094 31.3658 1.95747 34.6318 4.50388 37.1782L7.33231 34.3498ZM4.72609 27.556C4.72609 25.4754 5.24095 23.6374 6.25341 21.9922L2.84678 19.8958C1.42724 22.2026 0.726094 24.7725 0.726094 27.556H4.72609ZM6.25341 21.9922C7.18787 20.4737 8.68178 19.2864 10.9157 18.498L9.58446 14.726C6.65041 15.7616 4.34432 17.4623 2.84678 19.8958L6.25341 21.9922ZM10.9258 18.4944L46.4938 5.72639L45.1424 1.96161L9.57437 14.7296L10.9258 18.4944ZM46.5609 5.70095C47.2138 5.43979 47.8566 5.2479 48.4903 5.12116L47.7059 1.19883C46.8196 1.37609 45.9424 1.6402 45.0753 1.98705L46.5609 5.70095ZM48.4903 5.12116C49.1545 4.98832 49.7039 4.932 50.1501 4.932V0.931996C49.3803 0.931996 48.5617 1.02767 47.7059 1.19883L48.4903 5.12116ZM50.1501 4.932C53.168 4.932 55.3127 5.89178 56.8467 7.66186L59.8695 5.04213C57.4515 2.2522 54.1241 0.931996 50.1501 0.931996V4.932ZM56.9439 7.76621C58.636 9.4583 59.5501 11.7297 59.5501 14.788H63.5501C63.5501 10.8543 62.3362 7.50169 59.7723 4.93778L56.9439 7.76621ZM59.5501 14.788V169.372H63.5501V14.788H59.5501ZM59.5501 169.372C59.5501 172.028 58.6251 174.257 56.7159 176.166L59.5443 178.994C62.1951 176.343 63.5501 173.1 63.5501 169.372H59.5501ZM56.7159 176.166C54.8262 178.055 52.5296 179 49.6941 179V183C53.5466 183 56.874 181.665 59.5443 178.994L56.7159 176.166Z" fill="#676767"/>
</svg>
