<svg width="140" height="183" viewBox="0 0 140 183" fill="none" xmlns="http://www.w3.org/2000/svg">
<path d="M90.1335 140.644H92.1335V138.644H90.1335V140.644ZM6.00148 137.452L7.46707 136.091L7.46707 136.091L6.00148 137.452ZM2.58148 130.156L0.584249 130.261L0.587302 130.319L0.593717 130.377L2.58148 130.156ZM4.86148 122.404L3.27142 121.191L3.2599 121.206L3.24868 121.221L4.86148 122.404ZM92.1855 7.94799L90.6238 6.69859L90.6094 6.71656L90.5954 6.73485L92.1855 7.94799ZM96.2895 4.29999L95.3318 2.5442L95.2957 2.56387L95.2605 2.58501L96.2895 4.29999ZM112.477 119.668H110.477V121.668H112.477V119.668ZM134.365 121.948L135.475 120.284L135.475 120.284L134.365 121.948ZM134.365 137.68L135.675 139.191L135.703 139.167L135.73 139.142L134.365 137.68ZM112.477 140.644V138.644H110.477V140.644H112.477ZM90.1335 119.668V121.668H92.1335V119.668H90.1335ZM90.1335 44.2H92.1335V38.2713L88.5422 42.9885L90.1335 44.2ZM32.6775 119.668L31.0862 118.456L28.6412 121.668H32.6775V119.668ZM101.077 179C98.6079 179 96.5484 178.102 94.7876 176.215L91.8634 178.945C94.3585 181.618 97.4671 183 101.077 183V179ZM94.7876 176.215C93.0141 174.315 92.1335 172.071 92.1335 169.372H88.1335C88.1335 173.057 89.3808 176.285 91.8634 178.945L94.7876 176.215ZM92.1335 169.372V140.644H88.1335V169.372H92.1335ZM90.1335 138.644H14.2095V142.644H90.1335V138.644ZM14.2095 138.644C11.1469 138.644 8.98855 137.73 7.46707 136.091L4.5359 138.813C6.96642 141.43 10.28 142.644 14.2095 142.644V138.644ZM7.46707 136.091C5.76576 134.259 4.8232 132.221 4.56925 129.935L0.593717 130.377C0.947767 133.563 2.28521 136.389 4.5359 138.813L7.46707 136.091ZM4.57872 130.051C4.45037 127.612 5.08187 125.485 6.47429 123.587L3.24868 121.221C1.2971 123.883 0.408601 126.924 0.584249 130.261L4.57872 130.051ZM6.45155 123.617L93.7756 9.16112L90.5954 6.73485L3.27142 121.191L6.45155 123.617ZM93.7472 9.19738C94.8293 7.84481 96.0214 6.79323 97.3185 6.01498L95.2605 2.58501C93.5176 3.63075 91.9737 5.01117 90.6238 6.69859L93.7472 9.19738ZM97.2472 6.05578C98.6142 5.31016 100.107 4.932 101.761 4.932V0.931996C99.4639 0.931996 97.3088 1.46583 95.3318 2.5442L97.2472 6.05578ZM101.761 4.932C104.412 4.932 106.43 5.84827 108.002 7.66186L111.025 5.04213C108.645 2.29572 105.495 0.931996 101.761 0.931996V4.932ZM108.002 7.66186C109.628 9.53806 110.477 11.8692 110.477 14.788H114.477C114.477 11.0188 113.351 7.72592 111.025 5.04213L108.002 7.66186ZM110.477 14.788V119.668H114.477V14.788H110.477ZM112.477 121.668H126.157V117.668H112.477V121.668ZM126.157 121.668C129.021 121.668 131.356 122.345 133.256 123.612L135.475 120.284C132.815 118.511 129.678 117.668 126.157 117.668V121.668ZM133.256 123.612C134.759 124.614 135.785 126.555 135.785 130.156H139.785C139.785 125.853 138.532 122.322 135.475 120.284L133.256 123.612ZM135.785 130.156C135.785 132.442 134.912 134.434 133.001 136.218L135.73 139.142C138.379 136.67 139.785 133.646 139.785 130.156H135.785ZM133.056 136.169C131.162 137.81 128.899 138.644 126.157 138.644V142.644C129.8 142.644 133.009 141.502 135.675 139.191L133.056 136.169ZM126.157 138.644H112.477V142.644H126.157V138.644ZM110.477 140.644V169.372H114.477V140.644H110.477ZM110.477 169.372C110.477 172.071 109.597 174.315 107.823 176.215L110.748 178.945C113.23 176.285 114.477 173.057 114.477 169.372H110.477ZM107.823 176.215C106.103 178.058 103.912 179 101.077 179V183C104.931 183 108.212 181.662 110.748 178.945L107.823 176.215ZM92.1335 119.668V44.2H88.1335V119.668H92.1335ZM88.5422 42.9885L31.0862 118.456L34.2688 120.88L91.7248 45.4115L88.5422 42.9885ZM32.6775 121.668H90.1335V117.668H32.6775V121.668Z" fill="#676767"/>
</svg>
