<svg width="121" height="183" viewBox="0 0 121 183" fill="none" xmlns="http://www.w3.org/2000/svg">
<path d="M30.8967 173.476L29.8721 175.194L29.8898 175.204L29.9076 175.214L30.8967 173.476ZM10.1487 152.5L8.41036 153.489L8.41675 153.5L8.42329 153.511L10.1487 152.5ZM5.81669 114.652L7.2309 116.066L7.25528 116.042L7.2788 116.017L5.81669 114.652ZM22.4607 114.652L21.0465 116.066L21.0709 116.091L21.0961 116.114L22.4607 114.652ZM30.4407 140.644L28.7042 141.636L28.7042 141.636L30.4407 140.644ZM42.7527 153.184L41.7386 154.908L41.7495 154.914L41.7604 154.92L42.7527 153.184ZM78.3207 153.184L77.3284 151.448L77.3175 151.454L77.3067 151.46L78.3207 153.184ZM90.8607 140.644L92.5972 141.636L92.5972 141.636L90.8607 140.644ZM90.8607 105.076L89.1242 106.068L89.1304 106.079L89.1368 106.09L90.8607 105.076ZM78.3207 92.536L77.3067 94.2599L77.3175 94.2662L77.3284 94.2725L78.3207 92.536ZM14.2527 84.784L12.7906 86.1486L12.8141 86.1738L12.8385 86.1982L14.2527 84.784ZM14.2527 6.35199L12.7906 4.98736L12.7906 4.98736L14.2527 6.35199ZM106.821 6.57999L105.362 7.94787L105.384 7.9714L105.406 7.9942L106.821 6.57999ZM106.821 22.768L105.406 21.3538L105.382 21.3782L105.359 21.4034L106.821 22.768ZM34.0887 26.188V24.188H32.0887V26.188H34.0887ZM34.0887 64.72H32.0887V66.72H34.0887V64.72ZM90.1767 72.472L89.1521 74.1896L89.1698 74.2002L89.1876 74.2103L90.1767 72.472ZM110.925 93.22L109.186 94.209L109.197 94.2269L109.207 94.2446L110.925 93.22ZM110.925 152.5L109.199 151.489L109.193 151.5L109.186 151.511L110.925 152.5ZM90.1767 173.476L91.1788 175.207L91.1881 175.201L90.1767 173.476ZM60.5367 179C49.9112 179 40.3767 176.569 31.8857 171.738L29.9076 175.214C39.0487 180.415 49.2741 183 60.5367 183V179ZM31.9212 171.758C23.5505 166.765 16.874 160.018 11.8741 151.489L8.42329 153.511C13.7594 162.614 20.9149 169.851 29.8721 175.194L31.9212 171.758ZM11.887 151.511C7.05596 143.02 4.62469 133.485 4.62469 122.86H0.624689C0.624689 134.123 3.20942 144.348 8.41036 153.489L11.887 151.511ZM4.62469 122.86C4.62469 119.982 5.52131 117.776 7.2309 116.066L4.40247 113.238C1.85607 115.784 0.624689 119.05 0.624689 122.86H4.62469ZM7.2788 116.017C8.99903 114.174 11.1903 113.232 14.0247 113.232V109.232C10.1711 109.232 6.89035 110.57 4.35458 113.287L7.2788 116.017ZM14.0247 113.232C16.8602 113.232 19.1568 114.177 21.0465 116.066L23.8749 113.238C21.2046 110.567 17.8772 109.232 14.0247 109.232V113.232ZM21.0961 116.114C22.9392 117.834 23.8807 120.026 23.8807 122.86H27.8807C27.8807 119.006 26.5422 115.726 23.8253 113.19L21.0961 116.114ZM23.8807 122.86C23.8807 129.72 25.48 135.994 28.7042 141.636L32.1772 139.652C29.3214 134.654 27.8807 129.072 27.8807 122.86H23.8807ZM28.7042 141.636C31.9132 147.252 36.2634 151.687 41.7386 154.908L43.7667 151.46C38.906 148.601 35.0482 144.676 32.1772 139.652L28.7042 141.636ZM41.7604 154.92C47.4028 158.145 53.6767 159.744 60.5367 159.744V155.744C54.3247 155.744 48.7426 154.303 43.745 151.448L41.7604 154.92ZM60.5367 159.744C67.5391 159.744 73.8249 158.149 79.3347 154.908L77.3067 151.46C72.4804 154.299 66.9103 155.744 60.5367 155.744V159.744ZM79.313 154.92C84.943 151.703 89.38 147.266 92.5972 141.636L89.1242 139.652C86.2614 144.662 82.3384 148.585 77.3284 151.448L79.313 154.92ZM92.5972 141.636C95.8214 135.994 97.4207 129.72 97.4207 122.86H93.4207C93.4207 129.072 91.98 134.654 89.1242 139.652L92.5972 141.636ZM97.4207 122.86C97.4207 115.858 95.8256 109.572 92.5846 104.062L89.1368 106.09C91.9758 110.916 93.4207 116.486 93.4207 122.86H97.4207ZM92.5972 104.084C89.38 98.4537 84.943 94.0167 79.313 90.7995L77.3284 94.2725C82.3383 97.1353 86.2614 101.058 89.1242 106.068L92.5972 104.084ZM79.3347 90.8121C73.8249 87.5711 67.5391 85.976 60.5367 85.976V89.976C66.9103 89.976 72.4804 91.4209 77.3067 94.2599L79.3347 90.8121ZM60.5367 85.976H22.4607V89.976H60.5367V85.976ZM22.4607 85.976C19.5825 85.976 17.3765 85.0794 15.6669 83.3698L12.8385 86.1982C15.3849 88.7446 18.6509 89.976 22.4607 89.976V85.976ZM15.7148 83.4194C13.9588 81.538 13.0607 79.2255 13.0607 76.348H9.06069C9.06069 80.1585 10.2905 83.47 12.7906 86.1486L15.7148 83.4194ZM13.0607 76.348V14.788H9.06069V76.348H13.0607ZM13.0607 14.788C13.0607 11.9105 13.9588 9.59801 15.7148 7.71663L12.7906 4.98736C10.2905 7.66597 9.06069 10.9775 9.06069 14.788H13.0607ZM15.7148 7.71663C17.435 5.87353 19.6263 4.932 22.4607 4.932V0.931996C18.6071 0.931996 15.3263 2.27046 12.7906 4.98736L15.7148 7.71663ZM22.4607 4.932H98.6127V0.931996H22.4607V4.932ZM98.6127 4.932C101.225 4.932 103.441 5.89903 105.362 7.94787L108.28 5.21211C105.641 2.39696 102.385 0.931996 98.6127 0.931996V4.932ZM105.406 7.9942C107.316 9.90341 108.241 12.1324 108.241 14.788H112.241C112.241 11.0595 110.886 7.81657 108.235 5.16578L105.406 7.9942ZM108.241 14.788C108.241 17.2629 107.337 19.4236 105.406 21.3538L108.235 24.1822C110.865 21.5524 112.241 18.3931 112.241 14.788H108.241ZM105.359 21.4034C103.638 23.2465 101.447 24.188 98.6127 24.188V28.188C102.466 28.188 105.747 26.8495 108.283 24.1326L105.359 21.4034ZM98.6127 24.188H34.0887V28.188H98.6127V24.188ZM32.0887 26.188V64.72H36.0887V26.188H32.0887ZM34.0887 66.72H60.5367V62.72H34.0887V66.72ZM60.5367 66.72C71.3091 66.72 80.8283 69.2246 89.1521 74.1896L91.2013 70.7544C82.197 65.3834 71.9563 62.72 60.5367 62.72V66.72ZM89.1876 74.2103C97.6911 79.0485 104.348 85.7056 109.186 94.209L112.663 92.2309C107.469 83.1024 100.294 75.9275 91.1657 70.7337L89.1876 74.2103ZM109.207 94.2446C114.172 102.568 116.677 112.088 116.677 122.86H120.677C120.677 111.44 118.013 101.2 112.642 92.1954L109.207 94.2446ZM116.677 122.86C116.677 133.475 114.175 143.001 109.199 151.489L112.65 153.511C118.011 144.367 120.677 134.133 120.677 122.86H116.677ZM109.186 151.511C104.345 160.02 97.6809 166.759 89.1653 171.751L91.1881 175.201C100.304 169.857 107.472 162.612 112.663 153.489L109.186 151.511ZM89.1746 171.745C80.8473 176.566 71.3199 179 60.5367 179V183C71.9455 183 82.1781 180.418 91.1788 175.207L89.1746 171.745Z" fill="#676767"/>
</svg>
