<svg width="112" height="182" viewBox="0 0 112 182" fill="none" xmlns="http://www.w3.org/2000/svg">
<path d="M27.8438 173.16L26.834 174.886L26.8531 174.898L26.8725 174.908L27.8438 173.16ZM8.91977 154.008L7.17145 154.979L7.17533 154.986L7.17925 154.993L8.91977 154.008ZM10.7438 94.956L12.4252 96.0389L12.4428 96.0116L12.4596 95.9837L10.7438 94.956ZM62.4998 8.54399L60.8174 7.46248L60.8003 7.48914L60.784 7.51633L62.4998 8.54399ZM80.9678 4.896L79.6662 6.41451L79.6662 6.41451L80.9678 4.896ZM84.8438 11.736L82.871 12.0648L82.8798 12.1176L82.8914 12.1699L84.8438 11.736ZM83.2478 19.944L81.5412 18.9011L81.5373 18.9075L81.5335 18.9139L83.2478 19.944ZM52.0118 71.928L50.2974 70.8979L48.1795 74.4226L52.2598 73.9125L52.0118 71.928ZM83.7038 78.768L82.694 80.4944L82.7062 80.5015L82.7186 80.5085L83.7038 78.768ZM102.628 97.92L100.879 98.8913L100.883 98.8983L100.887 98.9052L102.628 97.92ZM102.628 154.008L104.368 154.993L104.372 154.986L104.376 154.979L102.628 154.008ZM83.7038 173.16L84.689 174.901L84.7013 174.894L84.7135 174.886L83.7038 173.16ZM78.6878 150.132L77.2387 148.754L77.2387 148.754L78.6878 150.132ZM78.6878 101.796L77.2222 103.157L77.2304 103.166L77.2387 103.174L78.6878 101.796ZM32.8598 101.796L34.3089 103.174L34.3172 103.166L34.3254 103.157L32.8598 101.796ZM32.8598 150.132L31.4107 151.51L32.8598 150.132ZM55.8878 178C45.6991 178 36.6924 175.788 28.8151 171.412L26.8725 174.908C35.4111 179.652 45.1004 182 55.8878 182V178ZM28.8535 171.434C21.0996 166.898 15.0449 160.769 10.6603 153.023L7.17925 154.993C11.9146 163.359 18.4759 169.998 26.834 174.886L28.8535 171.434ZM10.6681 153.037C6.29177 145.159 4.07977 136.153 4.07977 125.964H0.0797668C0.0797668 136.751 2.42776 146.441 7.17145 154.979L10.6681 153.037ZM4.07977 125.964C4.07977 114.605 6.87722 104.653 12.4252 96.0389L9.06234 93.873C3.05832 103.195 0.0797668 113.915 0.0797668 125.964H4.07977ZM12.4596 95.9837L64.2156 9.57165L60.784 7.51633L9.02798 93.9283L12.4596 95.9837ZM64.1821 9.62551C66.6307 5.81655 69.5491 4.15999 72.9878 4.15999V0.159993C67.9145 0.159993 63.8408 2.75944 60.8174 7.46248L64.1821 9.62551ZM72.9878 4.15999C75.7728 4.15999 77.9508 4.9442 79.6662 6.41451L82.2694 3.37749C79.7287 1.19979 76.5867 0.159993 72.9878 0.159993V4.15999ZM79.6662 6.41451C81.4418 7.9365 82.493 9.79712 82.871 12.0648L86.8166 11.4072C86.2825 8.20286 84.7497 5.50349 82.2693 3.37748L79.6662 6.41451ZM82.8914 12.1699C83.3707 14.3268 82.9852 16.5382 81.5412 18.9011L84.9543 20.9869C86.8544 17.8778 87.5328 14.6172 86.7961 11.3021L82.8914 12.1699ZM81.5335 18.9139L50.2974 70.8979L53.7261 72.9581L84.9621 20.9741L81.5335 18.9139ZM52.2598 73.9125C53.3847 73.7719 54.5933 73.7 55.8878 73.7V69.7C54.4462 69.7 53.0708 69.78 51.7637 69.9434L52.2598 73.9125ZM55.8878 73.7C66.0658 73.7 74.9809 75.9829 82.694 80.4944L84.7135 77.0416C76.3146 72.129 66.6858 69.7 55.8878 69.7V73.7ZM82.7186 80.5085C90.4495 84.8845 96.4955 91.0002 100.879 98.8913L104.376 96.9487C99.64 88.4238 93.0701 81.7715 84.689 77.0275L82.7186 80.5085ZM100.887 98.9052C105.253 106.618 107.468 115.617 107.468 125.964H111.468C111.468 115.031 109.122 105.334 104.368 96.9348L100.887 98.9052ZM107.468 125.964C107.468 136.153 105.256 145.159 100.879 153.037L104.376 154.979C109.12 146.441 111.468 136.751 111.468 125.964H107.468ZM100.887 153.023C96.5026 160.769 90.4479 166.898 82.694 171.434L84.7135 174.886C93.0716 169.998 99.6329 163.359 104.368 154.993L100.887 153.023ZM82.7186 171.419C75.0012 175.788 66.0772 178 55.8878 178V182C66.6744 182 76.2943 179.652 84.689 174.901L82.7186 171.419ZM55.6598 161.48C65.5734 161.48 73.7931 158.18 80.1369 151.51L77.2387 148.754C71.7264 154.548 64.5941 157.48 55.6598 157.48V161.48ZM80.1369 151.51C86.4714 144.851 89.5798 136.275 89.5798 125.964H85.5798C85.5798 135.413 82.7602 142.949 77.2387 148.754L80.1369 151.51ZM89.5798 125.964C89.5798 115.653 86.4714 107.077 80.1369 100.418L77.2387 103.174C82.7602 108.979 85.5798 116.515 85.5798 125.964H89.5798ZM80.1534 100.435C73.8137 93.6078 65.5891 90.22 55.6598 90.22V94.22C64.5784 94.22 71.7058 97.2162 77.2222 103.157L80.1534 100.435ZM55.6598 90.22C45.8718 90.22 37.7271 93.6151 31.3942 100.435L34.3254 103.157C39.8485 97.2089 46.9038 94.22 55.6598 94.22V90.22ZM31.4106 100.418C25.0762 107.077 21.9678 115.653 21.9678 125.964H25.9678C25.9678 116.515 28.7874 108.979 34.3089 103.174L31.4106 100.418ZM21.9678 125.964C21.9678 136.275 25.0762 144.851 31.4107 151.51L34.3089 148.754C28.7874 142.949 25.9678 135.413 25.9678 125.964H21.9678ZM31.4107 151.51C37.7478 158.173 45.8876 161.48 55.6598 161.48V157.48C46.888 157.48 39.8278 154.555 34.3089 148.754L31.4107 151.51Z" fill="#676767"/>
</svg>
