<svg width="112" height="183" viewBox="0 0 112 183" fill="none" xmlns="http://www.w3.org/2000/svg">
<path d="M83.9158 9.77199L82.906 11.4984L82.9251 11.5095L82.9445 11.5203L83.9158 9.77199ZM103.068 28.924L101.319 29.8953L101.323 29.9022L101.327 29.9092L103.068 28.924ZM101.244 87.748L99.5623 86.665L99.5447 86.6924L99.528 86.7203L101.244 87.748ZM49.4878 174.16L51.1701 175.242L51.1873 175.215L51.2036 175.188L49.4878 174.16ZM31.0198 177.808L29.7182 179.327L29.7182 179.327L31.0198 177.808ZM26.9158 170.968L24.943 171.297L24.9518 171.35L24.9634 171.402L26.9158 170.968ZM28.7398 162.76L30.4463 163.803L30.4502 163.797L30.4541 163.79L28.7398 162.76ZM59.9758 110.776L61.6901 111.806L63.808 108.281L59.7277 108.791L59.9758 110.776ZM28.2838 104.164L27.274 105.89L27.2862 105.898L27.2986 105.905L28.2838 104.164ZM9.35977 85.012L7.61145 85.9833L7.61532 85.9902L7.61925 85.9972L9.35977 85.012ZM9.35977 28.924L11.1003 29.9092L11.1042 29.9022L11.1081 29.8953L9.35977 28.924ZM28.2838 9.77199L29.269 11.5125L29.2813 11.5055L29.2935 11.4984L28.2838 9.77199ZM33.2998 81.136L31.8342 82.4969L31.8424 82.5057L31.8507 82.5144L33.2998 81.136ZM79.1278 81.136L80.5769 82.5144L80.5852 82.5057L80.5934 82.4969L79.1278 81.136ZM56.0998 4.70399C66.2778 4.70399 75.1929 6.98693 82.906 11.4984L84.9255 8.04561C76.5266 3.13304 66.8978 0.703985 56.0998 0.703985V4.70399ZM82.9445 11.5203C90.826 15.8989 96.9408 22.0138 101.319 29.8953L104.816 27.9527C100.075 19.4182 93.4215 12.7651 84.8871 8.02368L82.9445 11.5203ZM101.327 29.9092C105.696 37.6265 107.908 46.5506 107.908 56.74H111.908C111.908 45.9534 109.56 36.3335 104.808 27.9388L101.327 29.9092ZM107.908 56.74C107.908 68.0987 105.11 78.0511 99.5623 86.665L102.925 88.831C108.929 79.5089 111.908 68.7893 111.908 56.74H107.908ZM99.528 86.7203L47.772 173.132L51.2036 175.188L102.96 88.7757L99.528 86.7203ZM47.8054 173.078C45.3568 176.887 42.4385 178.544 38.9998 178.544V182.544C44.0731 182.544 48.1467 179.945 51.1701 175.242L47.8054 173.078ZM38.9998 178.544C36.2147 178.544 34.0367 177.76 32.3213 176.289L29.7182 179.327C32.2588 181.504 35.4008 182.544 38.9998 182.544V178.544ZM32.3213 176.289C30.5219 174.747 29.3823 172.848 28.8681 170.534L24.9634 171.402C25.6653 174.56 27.2616 177.221 29.7182 179.327L32.3213 176.289ZM28.8886 170.639C28.5238 168.451 28.9836 166.196 30.4463 163.803L27.0332 161.717C25.1519 164.796 24.3958 168.013 24.943 171.297L28.8886 170.639ZM30.4541 163.79L61.6901 111.806L58.2614 109.746L27.0254 161.73L30.4541 163.79ZM59.7277 108.791C58.6028 108.932 57.3942 109.004 56.0998 109.004V113.004C57.5413 113.004 58.9167 112.924 60.2238 112.761L59.7277 108.791ZM56.0998 109.004C45.9104 109.004 36.9863 106.792 29.269 102.423L27.2986 105.905C35.6932 110.656 45.3132 113.004 56.0998 113.004V109.004ZM29.2935 102.438C21.5396 97.9023 15.4849 91.7729 11.1003 84.0268L7.61925 85.9972C12.3546 94.363 18.9159 101.002 27.274 105.89L29.2935 102.438ZM11.1081 84.0407C6.73411 76.1676 4.51977 67.0861 4.51977 56.74H0.519766C0.519766 67.6739 2.86542 77.4404 7.61145 85.9833L11.1081 84.0407ZM4.51977 56.74C4.51977 46.5506 6.73198 37.6265 11.1003 29.9092L7.61925 27.9388C2.86755 36.3335 0.519766 45.9534 0.519766 56.74H4.51977ZM11.1081 29.8953C15.492 22.0042 21.5381 15.8885 29.269 11.5125L27.2986 8.03148C18.9175 12.7755 12.3475 19.4278 7.61145 27.9527L11.1081 29.8953ZM29.2935 11.4984C37.0066 6.98693 45.9218 4.70399 56.0998 4.70399V0.703985C45.3018 0.703985 35.6729 3.13304 27.274 8.04561L29.2935 11.4984ZM56.3278 21.224C46.4141 21.224 38.1944 24.5244 31.8507 31.1936L34.7489 33.9504C40.2611 28.1555 47.3934 25.224 56.3278 25.224V21.224ZM31.8507 31.1936C25.5162 37.8529 22.4078 46.429 22.4078 56.74H26.4078C26.4078 47.291 29.2274 39.7551 34.7489 33.9504L31.8507 31.1936ZM22.4078 56.74C22.4078 67.0519 25.5161 75.6928 31.8342 82.4969L34.7654 79.7751C29.2274 73.8112 26.4078 66.1881 26.4078 56.74H22.4078ZM31.8507 82.5144C38.1944 89.1835 46.4141 92.484 56.3278 92.484V88.484C47.3934 88.484 40.2611 85.5525 34.7489 79.7576L31.8507 82.5144ZM56.3278 92.484C66.1 92.484 74.2398 89.1765 80.5769 82.5144L77.6787 79.7576C72.1598 85.5595 65.0996 88.484 56.3278 88.484V92.484ZM80.5934 82.4969C86.9114 75.6928 90.0198 67.0519 90.0198 56.74H86.0198C86.0198 66.1881 83.2001 73.8112 77.6622 79.7751L80.5934 82.4969ZM90.0198 56.74C90.0198 46.429 86.9114 37.8529 80.5769 31.1936L77.6787 33.9504C83.2002 39.7551 86.0198 47.291 86.0198 56.74H90.0198ZM80.5769 31.1936C74.2398 24.5315 66.1 21.224 56.3278 21.224V25.224C65.0996 25.224 72.1598 28.1485 77.6787 33.9504L80.5769 31.1936Z" fill="#676767"/>
</svg>
